<?xml version="1.0" encoding="UTF-8"?><svg xmlns="http://www.w3.org/2000/svg" width="111" height="30" viewBox="0 0 111 30"><path fill="#7A7A7A" fill-rule="evenodd" d="M17.54 13.61c.025-1.97 1.06-3.79 2.74-4.82-1.064-1.516-2.78-2.442-4.63-2.5-2-.21-3.84 1.17-4.83 1.17-.99 0-2.54-1.15-4.19-1.11-2.167.07-4.137 1.275-5.19 3.17-2.24 3.89-.57 9.6 1.58 12.74 1.08 1.54 2.33 3.26 4 3.2 1.67-.06 2.21-1 4.15-1 1.94 0 2.49 1 4.17 1 1.68 0 2.82-1.54 3.85-3.1.79-1.093 1.4-2.305 1.81-3.59-2.098-.853-3.468-2.895-3.46-5.16zm-3.17-9.39c.94-1.13 1.404-2.584 1.29-4.05-1.438.153-2.766.842-3.72 1.93-.943 1.072-1.422 2.475-1.33 3.9 1.46.015 2.846-.64 3.76-1.78zM30 2.11c.25-.212.54-.375.85-.48.37-.124.76-.18 1.15-.17.304-.003.607.037.9.12.245.067.476.18.68.33.18.135.327.31.43.51.1.202.153.424.15.65.002.273-.067.542-.2.78-.14.244-.35.44-.6.57.14.065.27.145.39.24.098.102.182.216.25.34.084.11.152.23.2.36.048.135.07.277.07.42 0 .268-.055.533-.16.78-.103.24-.256.455-.45.63-.21.186-.455.328-.72.42-.32.112-.66.166-1 .16-.417 0-.83-.074-1.22-.22-.184-.068-.36-.15-.53-.25-.157-.084-.304-.185-.44-.3l.34-.55c.03-.04.068-.073.11-.1.05-.014.1-.014.15 0 .087.006.17.037.24.09l.32.19c.14.077.288.14.44.19.2.064.41.094.62.09.316.02.63-.07.89-.25.22-.19.335-.472.31-.76.003-.128-.024-.255-.08-.37-.057-.11-.14-.207-.24-.28-.1-.104-.22-.19-.35-.25-.163-.043-.33-.063-.5-.06h-.86V4h.79c.292.017.582-.056.83-.21.2-.138.312-.368.3-.61.005-.22-.1-.43-.28-.56-.23-.155-.503-.235-.78-.23-.18-.002-.358.02-.53.07-.133.04-.264.09-.39.15l-.28.15c-.06.04-.128.065-.2.07-.046.014-.094.014-.14 0-.046-.035-.083-.08-.11-.13L30 2.11zm5 1.81c.49-.455 1.14-.703 1.81-.69.233-.002.464.042.68.13.193.078.367.198.51.35.142.152.25.333.32.53.076.22.113.45.11.68v2.75h-.49c-.076.02-.154.02-.23 0-.064-.042-.11-.106-.13-.18l-.09-.31-.32.26c-.104.074-.214.137-.33.19-.115.053-.236.093-.36.12-.143.015-.287.015-.43 0-.173 0-.345-.027-.51-.08-.147-.045-.284-.12-.4-.22-.114-.102-.203-.228-.26-.37-.064-.162-.095-.336-.09-.51.013-.23.085-.455.21-.65.093-.108.2-.202.32-.28.153-.097.318-.175.49-.23.222-.072.45-.125.68-.16.292-.042.585-.066.88-.07v-.26c.014-.232-.053-.462-.19-.65-.14-.146-.338-.223-.54-.21-.142-.004-.284.017-.42.06-.104.033-.204.077-.3.13l-.23.13c-.07.04-.15.06-.23.06-.068.002-.135-.02-.19-.06-.048-.036-.088-.08-.12-.13L35 3.92zm2.41 1.89c-.255.01-.51.036-.76.08-.172.03-.34.08-.5.15-.107.045-.2.117-.27.21-.13.208-.097.48.08.65.127.085.277.127.43.12.21.012.42-.03.61-.12.173-.09.328-.207.46-.35v-.73l-.05-.01zm4.95-1.72h-1.9v3.58h-1V3.32h3v.78h-.1M44 3.91c.173-.198.38-.364.61-.49.246-.13.52-.196.8-.19.225-.002.448.05.65.15.2.102.375.25.51.43.153.21.265.448.33.7.088.326.128.663.12 1 .004.308-.04.615-.13.91-.08.262-.21.506-.38.72-.33.42-.837.66-1.37.65-.212.006-.423-.032-.62-.11-.197-.082-.374-.205-.52-.36V9.1h-1V3.32h.64c.124-.01.237.07.27.19l.09.4zm0 2.64c.102.135.236.24.39.31.146.06.302.092.46.09.148.002.295-.028.43-.09.13-.06.245-.153.33-.27.098-.14.17-.295.21-.46.05-.216.075-.438.07-.66.004-.218-.016-.436-.06-.65-.033-.153-.094-.3-.18-.43-.07-.104-.167-.186-.28-.24-.115-.057-.242-.088-.37-.09-.196-.006-.39.042-.56.14-.165.104-.31.236-.43.39v2L44 6.55zm7.63-3.23l-2.38 5.56c-.024.066-.066.125-.12.17-.068.045-.15.066-.23.06h-.77L49 7.36l-1.76-4h.86c.068-.003.136.018.19.06.044.038.078.086.1.14l.93 2.26c.03.075.058.152.08.23l.06.23.08-.28.08-.23.88-2.26c.044-.12.162-.198.29-.19h.84zm.23.47c.177-.168.384-.3.61-.39.28-.107.58-.158.88-.15.244-.002.486.03.72.1.19.054.37.142.53.26.136.098.248.224.33.37.073.135.11.286.11.44.01.086.01.174 0 .26-.026.092-.067.18-.12.26-.06.09-.134.173-.22.24-.103.08-.217.145-.34.19.225.08.425.218.58.4.148.184.226.414.22.65.003.205-.053.406-.16.58-.1.166-.232.31-.39.42-.167.117-.353.205-.55.26-.208.06-.424.09-.64.09-.133.01-.267.01-.4 0-.308-.05-.602-.165-.86-.34-.16-.12-.3-.264-.41-.43l.3-.38c.04-.066.113-.104.19-.1.068 0 .135.02.19.06l.21.14c.088.056.182.103.28.14.13.044.264.064.4.06.215.016.43-.048.6-.18.13-.112.205-.277.2-.45.004-.164-.075-.318-.21-.41-.207-.116-.444-.168-.68-.15h-.49v-.66h.49c.22.014.438-.034.63-.14.136-.078.22-.223.22-.38 0-.144-.07-.28-.19-.36-.166-.12-.365-.187-.57-.19-.126-.018-.254-.018-.38 0l-.27.1-.19.1c-.046.012-.094.012-.14 0h-.12c-.046-.03-.084-.072-.11-.12l-.25-.29zm8-.47v4.36h-1v-3c-.052.12-.116.233-.19.34l-.08.12-.2.28-.27.38-.31.44L57 7.42c-.046.063-.1.12-.16.17-.06.053-.14.082-.22.08h-.68V3.32h1v3c.058-.112.125-.22.2-.32l.08-.12.2-.28.27-.38.31-.46.84-1.18c.044-.068.098-.13.16-.18.06-.053.14-.08.22-.08h.64zm4.78.77h-1.56v3.58H62V4.09h-1.52v-.77h4.16v.78m1.3 1.53c.01.198.05.394.12.58.056.15.14.285.25.4.1.105.224.187.36.24.15.055.31.082.47.08.15.003.297-.017.44-.06.11-.034.217-.077.32-.13l.24-.13c.06-.037.13-.058.2-.06.08-.006.157.033.2.1l.3.35c-.112.132-.244.247-.39.34-.14.09-.292.164-.45.22-.156.056-.316.096-.48.12-.156.01-.314.01-.47 0-.29.003-.578-.047-.85-.15-.257-.1-.49-.252-.68-.45-.2-.21-.352-.458-.45-.73-.116-.32-.174-.66-.17-1-.01-.267.023-.534.1-.79.18-.515.568-.93 1.07-1.14.294-.124.61-.182.93-.17.26-.003.517.04.76.13.225.082.43.212.6.38.17.178.304.39.39.62.098.27.146.554.14.84.01.11-.008.22-.05.32-.047.06-.124.092-.2.08h-2.7v.01zm2-.63c0-.13-.02-.257-.06-.38-.035-.117-.093-.226-.17-.32-.08-.09-.18-.163-.29-.21-.38-.165-.823-.1-1.14.17-.17.21-.267.47-.28.74h1.94zm5.52-1.68c.24-.005.478.022.71.08.18.043.348.117.5.22.144.092.26.224.33.38.06.132.09.275.09.42.01.096.01.194 0 .29-.014.1-.044.2-.09.29-.068.098-.152.182-.25.25-.12.085-.256.146-.4.18.138.028.272.072.4.13.115.052.22.123.31.21.085.082.153.18.2.29.048.12.072.25.07.38.004.2-.044.395-.14.57-.09.16-.217.297-.37.4-.165.108-.348.186-.54.23-.21.053-.424.08-.64.08h-1.9v-4.4h1.72zm-.72.68v1.14h.69c.093.015.187.015.28 0 .082-.03.157-.08.22-.14.06-.056.108-.124.14-.2.035-.08.052-.164.05-.25.01-.063.01-.127 0-.19-.02-.077-.062-.146-.12-.2-.066-.072-.148-.127-.24-.16-.11-.017-.22-.017-.33 0h-.69zm.78 3c.178-.01.347-.082.48-.2.13-.11.2-.272.19-.44.01-.073.01-.147 0-.22-.02-.052-.05-.1-.09-.14-.063-.056-.138-.097-.22-.12-.116-.017-.234-.017-.35 0h-.79V7h.78zM41.3 26h-2c-.194.008-.385-.053-.54-.17-.137-.107-.244-.25-.31-.41l-1-2.8h-5.7l-1 2.8c-.058.158-.158.296-.29.4-.153.123-.344.186-.54.18h-2l5.38-13.74h2.6L41.3 26zm-4.51-5.19l-1.67-4.57c-.106-.232-.193-.473-.26-.72-.093-.28-.183-.58-.27-.9-.08.32-.17.63-.26.91s-.17.53-.26.74l-1.66 4.55h4.38v-.01zm7.77-3.23c.387-.44.847-.807 1.36-1.09.55-.29 1.167-.435 1.79-.42.506-.007 1.006.106 1.46.33.453.24.843.582 1.14 1 .32.464.555.982.69 1.53.18.675.266 1.37.26 2.07.015.676-.073 1.35-.26 2-.178.587-.463 1.136-.84 1.62-.356.45-.807.815-1.32 1.07-.54.26-1.132.39-1.73.38-.48.014-.955-.07-1.4-.25-.373-.17-.71-.41-1-.7v4h-2.37V16.25h1.43c.277-.02.53.16.6.43l.19.9zm.12 5.89c.23.294.53.527.87.68.317.132.657.2 1 .2.344.01.686-.058 1-.2.292-.137.543-.347.73-.61.214-.302.37-.64.46-1 .115-.48.17-.975.16-1.47.008-.487-.04-.973-.14-1.45-.064-.355-.197-.695-.39-1-.155-.232-.37-.42-.62-.54-.26-.115-.544-.173-.83-.17-.434-.012-.863.096-1.24.31-.382.23-.72.524-1 .87v4.38zm10.67-5.89c.387-.44.847-.807 1.36-1.09.55-.29 1.167-.435 1.79-.42.52-.013 1.034.1 1.5.33.453.24.843.582 1.14 1 .333.484.57 1.027.7 1.6.183.69.27 1.405.26 2.12.005.678-.092 1.352-.29 2-.175.567-.45 1.1-.81 1.57-.356.45-.807.815-1.32 1.07-.54.26-1.132.39-1.73.38-.48.014-.955-.07-1.4-.25-.373-.17-.71-.41-1-.7v4h-2.42V16.25h1.43c.277-.02.53.16.6.43l.19.9zm.12 5.89c.23.294.53.527.87.68.317.132.657.2 1 .2.344.01.686-.058 1-.2.292-.137.543-.347.73-.61.214-.302.37-.64.46-1 .115-.48.17-.975.16-1.47.008-.487-.04-.973-.14-1.45-.064-.355-.197-.695-.39-1-.155-.232-.37-.42-.62-.54-.26-.115-.544-.173-.83-.17-.434-.012-.863.096-1.24.31-.382.23-.72.524-1 .87v4.38zm19.6-8.71c-.058.113-.14.212-.24.29-.095.063-.207.094-.32.09-.157-.004-.31-.052-.44-.14l-.56-.33c-.243-.133-.497-.243-.76-.33-.323-.103-.66-.154-1-.15-.315-.005-.63.04-.93.13-.244.076-.472.198-.67.36-.176.148-.313.337-.4.55-.09.222-.134.46-.13.7-.01.294.085.582.27.81.2.23.445.417.72.55.322.163.656.3 1 .41l1.17.38c.398.135.79.292 1.17.47.366.175.703.404 1 .68.305.282.55.622.72 1 .215.46.328.962.33 1.47.004.595-.105 1.185-.32 1.74-.205.534-.522 1.02-.93 1.42-.425.434-.936.774-1.5 1-.64.24-1.317.358-2 .35-.46-.022-.915-.092-1.36-.21-.417-.085-.826-.21-1.22-.37-.384-.155-.752-.346-1.1-.57-.33-.212-.635-.46-.91-.74l.75-1.23c.067-.09.152-.165.25-.22.105-.052.223-.073.34-.06.187.013.365.083.51.2l.66.43c.282.172.58.316.89.43.392.137.805.2 1.22.19.618.046 1.23-.14 1.72-.52.415-.38.636-.928.6-1.49.013-.316-.082-.626-.27-.88-.197-.24-.442-.433-.72-.57-.32-.163-.654-.294-1-.39l-1.16-.35c-.396-.13-.783-.283-1.16-.46-.37-.174-.707-.407-1-.69-.31-.303-.556-.668-.72-1.07-.194-.504-.286-1.04-.27-1.58.003-1.03.426-2.016 1.17-2.73.408-.383.887-.682 1.41-.88.613-.23 1.265-.343 1.92-.33.75-.003 1.495.125 2.2.38.65.23 1.246.59 1.75 1.06l-.68 1.2zm5.56 11.39c-.74.06-1.47-.2-2-.72-.483-.55-.728-1.27-.68-2V18H77c-.118.004-.233-.04-.32-.12-.094-.1-.14-.234-.13-.37v-.92l1.57-.26.49-2.66c.026-.114.09-.216.18-.29.1-.07.22-.106.34-.1h1.22v3.07H83V18h-2.6v5.28c-.02.256.058.51.22.71.154.174.378.27.61.26.122.02.248.02.37 0l.26-.11L82 24c.056-.015.114-.015.17 0 .055-.018.115-.018.17 0 .054.047.1.1.14.16l.7 1.14c-.344.308-.745.546-1.18.7-.446.122-.908.172-1.37.15zm8.06-10.05c.683-.013 1.362.106 2 .35.572.222 1.09.563 1.52 1 .443.45.784.987 1 1.58.456 1.353.456 2.817 0 4.17-.217.595-.558 1.137-1 1.59-.43.44-.947.78-1.52 1-.638.244-1.317.363-2 .35-.683.01-1.362-.107-2-.35-.573-.22-1.09-.56-1.52-1-.44-.454-.78-.996-1-1.59-.462-1.352-.462-2.818 0-4.17.217-.592.558-1.13 1-1.58.43-.438.948-.78 1.52-1 .64-.242 1.317-.36 2-.35zm0 8.24c.7.05 1.38-.258 1.8-.82.433-.72.636-1.553.58-2.39.055-.84-.148-1.677-.58-2.4-.42-.566-1.098-.88-1.8-.83-.71-.052-1.4.26-1.83.83-.44.72-.645 1.558-.59 2.4-.056.84.15 1.674.59 2.39.433.564 1.12.873 1.83.82zm8.82-6.4c.26-.527.628-.994 1.08-1.37.42-.333.944-.51 1.48-.5.382-.02.76.082 1.08.29l-.15 1.76c-.02.093-.07.176-.14.24-.07.05-.154.074-.24.07-.14.01-.28.01-.42 0-.183-.016-.367-.016-.55 0-.235-.004-.468.033-.69.11-.202.075-.39.187-.55.33-.17.15-.314.326-.43.52-.134.22-.25.45-.35.69v6h-2.35v-9.83h1.38c.174-.038.356.008.49.124.137.116.21.288.2.466l.16 1.1zm6.4 3.48c.027.444.118.882.27 1.3.12.334.308.64.55.9.226.236.503.417.81.53.32.116.66.177 1 .18.338.01.676-.034 1-.13.248-.077.488-.174.72-.29l.54-.29c.136-.082.29-.127.45-.13.176-.01.343.073.44.22l.67.86c-.25.295-.544.55-.87.76-.314.2-.65.365-1 .49-.347.122-.706.21-1.07.26-.35.05-.705.078-1.06.08-.646.005-1.287-.11-1.89-.34-.573-.22-1.092-.56-1.52-1-.442-.47-.783-1.024-1-1.63-.26-.725-.385-1.49-.37-2.26-.012-.657.096-1.312.32-1.93.204-.567.52-1.087.93-1.53.416-.43.916-.77 1.47-1 .632-.267 1.314-.397 2-.38.58-.007 1.156.09 1.7.29.504.187.96.48 1.34.86.386.397.686.87.88 1.39.222.6.33 1.24.32 1.88.022.245-.016.492-.11.72-.1.14-.27.212-.44.19h-6.08zm4.47-1.42c0-.292-.043-.582-.13-.86-.077-.26-.207-.502-.38-.71-.177-.208-.4-.372-.65-.48-.29-.124-.604-.186-.92-.18-.59-.033-1.168.177-1.6.58-.405.46-.65 1.04-.7 1.65h4.38z"/></svg>