<svg xmlns="http://www.w3.org/2000/svg" width="111" height="30" viewBox="0 0 111 30" fill="none">
<path d="M37.3017 21.7991L36.1006 25.4357H34.5563L38.4863 13.8699H40.288L44.2318 25.4357H42.6349L41.4005 21.7991H37.3017ZM41.0933 20.6312L39.9614 17.3018C39.704 16.5462 39.5324 15.8598 39.3608 15.1928H39.3276C39.156 15.8792 38.9678 16.5822 38.7436 17.2851L37.6117 20.6312H41.0933Z" fill="#838484"/>
<path d="M45.3831 19.8424C45.3831 18.7796 45.3499 17.9217 45.3139 17.1329H46.67L46.7392 18.5582H46.7724C47.3896 17.5453 48.3693 16.9447 49.7227 16.9447C51.7292 16.9447 53.2403 18.644 53.2403 21.1653C53.2403 24.1515 51.422 25.6267 49.4653 25.6267C48.3665 25.6267 47.4062 25.1451 46.908 24.3231H46.8748V28.8343H45.3831V19.8424ZM46.8748 22.0565C46.8748 22.2806 46.908 22.4854 46.944 22.6736C47.218 23.7198 48.1285 24.4421 49.2079 24.4421C50.8048 24.4421 51.7292 23.1386 51.7292 21.2345C51.7292 19.5712 50.8546 18.1458 49.2577 18.1458C48.2282 18.1458 47.2678 18.8848 46.9744 20.0167C46.9218 20.2049 46.872 20.4291 46.872 20.6339V22.0565H46.8748Z" fill="#838484"/>
<path d="M54.3916 19.8424C54.3916 18.7796 54.3584 17.9217 54.3224 17.1329H55.6786L55.7478 18.5582H55.781C56.3981 17.5453 57.3779 16.9447 58.7312 16.9447C60.7377 16.9447 62.2488 18.644 62.2488 21.1653C62.2488 24.1515 60.4305 25.6267 58.4738 25.6267C57.3751 25.6267 56.4148 25.1451 55.9166 24.3231H55.8834V28.8343H54.3916V19.8424V19.8424ZM55.8834 22.0565C55.8834 22.2806 55.9166 22.4854 55.9526 22.6736C56.2266 23.7198 57.1371 24.4421 58.2165 24.4421C59.8134 24.4421 60.7377 23.1386 60.7377 21.2345C60.7377 19.5712 59.8632 18.1458 58.2663 18.1458C57.2367 18.1458 56.2764 18.8848 55.983 20.0167C55.9304 20.2049 55.8806 20.4291 55.8806 20.6339V22.0565H55.8834Z" fill="#838484"/>
<path d="M72.5609 24.9209C71.8912 25.1617 70.571 25.5547 69.0101 25.5547C67.261 25.5547 65.8191 25.1091 64.6871 24.027C63.6908 23.0666 63.0736 21.5223 63.0736 19.7206C63.0902 16.2722 65.4593 13.7481 69.3367 13.7481C70.6762 13.7481 71.7223 14.0387 72.2205 14.2795L71.8607 15.4972C71.2436 15.2232 70.4714 14.9991 69.3035 14.9991C66.4888 14.9991 64.6539 16.7482 64.6539 19.6486C64.6539 22.5823 66.4224 24.3148 69.1153 24.3148C70.0922 24.3148 70.762 24.1764 71.1052 24.0048V20.5647H68.7555V19.3636H72.5637V24.9209H72.5609Z" fill="#838484"/>
<path d="M79.0815 25.4357L78.9625 24.3895H78.9099C78.4477 25.0427 77.5537 25.6239 76.372 25.6239C74.6893 25.6239 73.8313 24.4393 73.8313 23.2382C73.8313 21.2317 75.6164 20.133 78.8241 20.1496V19.978C78.8241 19.2916 78.6359 18.0573 76.9366 18.0573C76.1644 18.0573 75.359 18.298 74.7751 18.6744L74.4319 17.6781C75.1183 17.2325 76.1146 16.9391 77.1607 16.9391C79.7014 16.9391 80.3186 18.6717 80.3186 20.3378V23.443C80.3186 24.1626 80.3518 24.8683 80.457 25.4329H79.0815V25.4357ZM78.8601 21.1985C77.2133 21.1653 75.3424 21.4559 75.3424 23.0694C75.3424 24.0463 75.9956 24.5113 76.7678 24.5113C77.8499 24.5113 78.5362 23.8249 78.7743 23.122C78.8268 22.967 78.8601 22.7954 78.8601 22.6404V21.1985Z" fill="#838484"/>
<path d="M81.8461 13.2555H83.3572V25.4357H81.8461V13.2555Z" fill="#838484"/>
<path d="M85.8952 13.2555H87.4063V25.4357H85.8952V13.2555Z" fill="#838484"/>
<path d="M90.34 21.5583C90.3732 23.6008 91.6795 24.4421 93.1878 24.4421C94.27 24.4421 94.9204 24.2539 95.4877 24.0131L95.7451 25.0953C95.2137 25.3361 94.3032 25.61 92.983 25.61C90.4258 25.61 88.8981 23.9273 88.8981 21.4227C88.8981 18.918 90.3732 16.9447 92.7921 16.9447C95.5043 16.9447 96.2239 19.3304 96.2239 20.8581C96.2239 21.1681 96.1907 21.4061 96.1713 21.5611H90.34V21.5583ZM94.7654 20.4789C94.782 19.5186 94.3696 18.0241 92.6731 18.0241C91.1454 18.0241 90.4756 19.43 90.3566 20.4789H94.7654Z" fill="#838484"/>
<path d="M97.6491 19.7234C97.6491 18.7464 97.6325 17.9051 97.5799 17.1329H98.9001L98.9527 18.763H99.0218C99.3982 17.6477 100.309 16.9447 101.322 16.9447C101.493 16.9447 101.612 16.9613 101.751 16.9973V18.4226C101.596 18.3894 101.441 18.37 101.236 18.37C100.173 18.37 99.4176 19.1754 99.21 20.3101C99.1768 20.5149 99.1409 20.7557 99.1409 21.0131V25.4412H97.6491V19.7234Z" fill="#838484"/>
<path d="M104.839 17.1329L106.658 22.0398C106.846 22.5878 107.053 23.241 107.189 23.7391H107.222C107.377 23.241 107.549 22.6072 107.754 22.0066L109.403 17.1329H111L108.736 23.0528C107.654 25.9006 106.918 27.3591 105.888 28.2503C105.149 28.9035 104.413 29.1608 104.034 29.2273L103.658 27.9569C104.034 27.8379 104.532 27.5972 104.978 27.218C105.39 26.8914 105.905 26.3075 106.248 25.5353C106.317 25.3803 106.367 25.2613 106.367 25.1755C106.367 25.0897 106.334 24.9707 106.265 24.7797L103.19 17.1329H104.839Z" fill="#838484"/>
<path d="M33.7832 2.1275C34.0322 1.9115 34.3232 1.745 34.6562 1.628C34.9922 1.511 35.3687 1.4525 35.7857 1.4525C36.1277 1.4525 36.4352 1.4945 36.7082 1.5785C36.9842 1.6595 37.2182 1.775 37.4102 1.925C37.6052 2.072 37.7537 2.249 37.8557 2.456C37.9607 2.66 38.0132 2.885 38.0132 3.131C38.0132 3.443 37.9382 3.7235 37.7882 3.9725C37.6412 4.2185 37.4252 4.415 37.1402 4.562C37.2962 4.634 37.4387 4.7195 37.5677 4.8185C37.6967 4.9175 37.8062 5.0285 37.8962 5.1515C37.9892 5.2715 38.0612 5.4035 38.1122 5.5475C38.1632 5.6885 38.1887 5.8385 38.1887 5.9975C38.1887 6.2855 38.1347 6.5555 38.0267 6.8075C37.9217 7.0565 37.7657 7.2755 37.5587 7.4645C37.3547 7.6505 37.1042 7.7975 36.8072 7.9055C36.5102 8.0105 36.1712 8.063 35.7902 8.063C35.5622 8.063 35.3402 8.042 35.1242 8C34.9112 7.961 34.7087 7.9055 34.5167 7.8335C34.3277 7.7585 34.1492 7.6685 33.9812 7.5635C33.8162 7.4585 33.6662 7.3415 33.5312 7.2125L33.8372 6.7085C33.8642 6.6665 33.8987 6.6335 33.9407 6.6095C33.9827 6.5855 34.0292 6.5735 34.0802 6.5735C34.1282 6.5735 34.1792 6.5885 34.2332 6.6185C34.2872 6.6485 34.3487 6.6875 34.4177 6.7355C34.4897 6.7805 34.5692 6.83 34.6562 6.884C34.7432 6.935 34.8437 6.9845 34.9577 7.0325C35.0717 7.0775 35.1992 7.115 35.3402 7.145C35.4812 7.175 35.6402 7.19 35.8172 7.19C36.2582 7.19 36.5987 7.0925 36.8387 6.8975C37.0817 6.7025 37.2032 6.4175 37.2032 6.0425C37.2032 5.8865 37.1717 5.7455 37.1087 5.6195C37.0457 5.4905 36.9557 5.381 36.8387 5.291C36.7217 5.201 36.5792 5.132 36.4112 5.084C36.2462 5.033 36.0602 5.009 35.8532 5.012H34.9532L34.9487 4.1525H35.7902C35.9762 4.1525 36.1457 4.1315 36.2987 4.0895C36.4517 4.0475 36.5822 3.9875 36.6902 3.9095C36.7982 3.8285 36.8807 3.731 36.9377 3.617C36.9977 3.5 37.0277 3.3665 37.0277 3.2165C37.0277 3.0815 36.9992 2.96 36.9422 2.852C36.8882 2.741 36.8087 2.6465 36.7037 2.5685C36.5987 2.4905 36.4682 2.4305 36.3122 2.3885C36.1562 2.3435 35.9792 2.321 35.7812 2.321C35.5502 2.321 35.3537 2.3465 35.1917 2.3975C35.0297 2.4455 34.8902 2.4995 34.7732 2.5595C34.6562 2.6165 34.5587 2.669 34.4807 2.717C34.4027 2.765 34.3352 2.789 34.2782 2.789C34.2242 2.789 34.1792 2.777 34.1432 2.753C34.1102 2.726 34.0772 2.6855 34.0442 2.6315L33.7832 2.1275ZM41.362 5.993C41.017 6.005 40.726 6.0335 40.489 6.0785C40.252 6.1205 40.06 6.176 39.913 6.245C39.766 6.311 39.6595 6.3905 39.5935 6.4835C39.5305 6.5765 39.499 6.6785 39.499 6.7895C39.499 6.8975 39.5155 6.9905 39.5485 7.0685C39.5845 7.1435 39.6325 7.2065 39.6925 7.2575C39.7555 7.3055 39.8275 7.3415 39.9085 7.3655C39.9925 7.3865 40.084 7.397 40.183 7.397C40.435 7.397 40.651 7.3505 40.831 7.2575C41.014 7.1615 41.191 7.0235 41.362 6.8435V5.993ZM38.797 4.049C39.316 3.566 39.934 3.3245 40.651 3.3245C40.915 3.3245 41.149 3.368 41.353 3.455C41.56 3.539 41.7325 3.659 41.8705 3.815C42.0115 3.971 42.118 4.157 42.19 4.373C42.265 4.586 42.3025 4.823 42.3025 5.084V8H41.8705C41.7775 8 41.707 7.9865 41.659 7.9595C41.611 7.9295 41.5705 7.871 41.5375 7.784L41.443 7.4105C41.326 7.5155 41.2105 7.61 41.0965 7.694C40.9825 7.775 40.864 7.844 40.741 7.901C40.621 7.958 40.4905 8 40.3495 8.027C40.2115 8.057 40.0585 8.072 39.8905 8.072C39.7045 8.072 39.5305 8.0465 39.3685 7.9955C39.2095 7.9445 39.0715 7.868 38.9545 7.766C38.8375 7.661 38.7445 7.532 38.6755 7.379C38.6095 7.226 38.5765 7.046 38.5765 6.839C38.5765 6.662 38.623 6.4895 38.716 6.3215C38.812 6.1535 38.968 6.0035 39.184 5.8715C39.403 5.7365 39.6895 5.6255 40.0435 5.5385C40.4005 5.4515 40.84 5.402 41.362 5.39V5.084C41.362 4.754 41.2915 4.508 41.1505 4.346C41.0095 4.184 40.8025 4.103 40.5295 4.103C40.3435 4.103 40.1875 4.127 40.0615 4.175C39.9355 4.22 39.826 4.2695 39.733 4.3235C39.64 4.3775 39.5575 4.4285 39.4855 4.4765C39.4135 4.5215 39.337 4.544 39.256 4.544C39.19 4.544 39.133 4.5275 39.085 4.4945C39.04 4.4585 39.0025 4.415 38.9725 4.364L38.797 4.049ZM46.2824 4.139H44.2034V8H43.2359V3.41H46.2824V4.139ZM47.7563 6.848C47.8913 7.022 48.0383 7.145 48.1973 7.217C48.3593 7.286 48.5378 7.3205 48.7328 7.3205C49.1108 7.3205 49.4048 7.1825 49.6148 6.9065C49.8278 6.6305 49.9343 6.2195 49.9343 5.6735C49.9343 5.3915 49.9103 5.1515 49.8623 4.9535C49.8143 4.7525 49.7453 4.589 49.6553 4.463C49.5653 4.337 49.4558 4.2455 49.3268 4.1885C49.1978 4.1315 49.0523 4.103 48.8903 4.103C48.6443 4.103 48.4313 4.157 48.2513 4.265C48.0743 4.37 47.9093 4.5215 47.7563 4.7195V6.848ZM47.7068 4.076C47.8988 3.851 48.1163 3.6695 48.3593 3.5315C48.6053 3.3935 48.8903 3.3245 49.2143 3.3245C49.4723 3.3245 49.7063 3.377 49.9163 3.482C50.1263 3.584 50.3063 3.734 50.4563 3.932C50.6063 4.13 50.7218 4.376 50.8028 4.67C50.8868 4.961 50.9288 5.2955 50.9288 5.6735C50.9288 6.0125 50.8823 6.329 50.7893 6.623C50.6993 6.914 50.5688 7.1675 50.3978 7.3835C50.2268 7.5965 50.0198 7.7645 49.7768 7.8875C49.5338 8.0075 49.2593 8.0675 48.9533 8.0675C48.6833 8.0675 48.4538 8.024 48.2648 7.937C48.0788 7.85 47.9093 7.73 47.7563 7.577V9.5255H46.7888V3.41H47.3738C47.5058 3.41 47.5898 3.4715 47.6258 3.5945L47.7068 4.076ZM55.6183 3.41L53.0893 9.305C53.0563 9.374 53.0158 9.428 52.9678 9.467C52.9228 9.506 52.8523 9.5255 52.7563 9.5255H52.0408L52.8868 7.6895L51.0148 3.41H51.8563C51.9373 3.41 51.9988 3.4295 52.0408 3.4685C52.0858 3.5045 52.1188 3.548 52.1398 3.599L53.2333 6.2045C53.2603 6.2795 53.2843 6.3545 53.3053 6.4295C53.3293 6.5015 53.3518 6.5765 53.3728 6.6545C53.3968 6.5765 53.4208 6.5 53.4448 6.425C53.4688 6.35 53.4958 6.275 53.5258 6.2L54.5743 3.599C54.5953 3.545 54.6298 3.5 54.6778 3.464C54.7288 3.428 54.7843 3.41 54.8443 3.41H55.6183ZM55.7251 3.896C55.8991 3.731 56.1121 3.5975 56.3641 3.4955C56.6161 3.3905 56.9176 3.338 57.2686 3.338C57.5506 3.338 57.7996 3.3725 58.0156 3.4415C58.2316 3.5075 58.4131 3.5975 58.5601 3.7115C58.7071 3.8225 58.8181 3.9515 58.8931 4.0985C58.9711 4.2455 59.0101 4.3985 59.0101 4.5575C59.0101 4.6475 58.9966 4.7405 58.9696 4.8365C58.9426 4.9295 58.8976 5.021 58.8346 5.111C58.7746 5.201 58.6936 5.285 58.5916 5.363C58.4926 5.441 58.3696 5.5055 58.2226 5.5565C58.4956 5.6465 58.7116 5.786 58.8706 5.975C59.0296 6.161 59.1091 6.3935 59.1091 6.6725C59.1091 6.8915 59.0581 7.088 58.9561 7.262C58.8571 7.433 58.7236 7.5785 58.5556 7.6985C58.3906 7.8185 58.1986 7.91 57.9796 7.973C57.7636 8.036 57.5386 8.0675 57.3046 8.0675C57.1636 8.0675 57.0166 8.054 56.8636 8.027C56.7136 8.003 56.5636 7.9625 56.4136 7.9055C56.2666 7.8455 56.1241 7.769 55.9861 7.676C55.8481 7.583 55.7236 7.469 55.6126 7.334L55.8916 6.9785C55.9276 6.9185 55.9876 6.8885 56.0716 6.8885C56.1316 6.8885 56.1931 6.911 56.2561 6.956C56.3191 7.001 56.3926 7.0505 56.4766 7.1045C56.5636 7.1585 56.6671 7.208 56.7871 7.253C56.9101 7.298 57.0616 7.3205 57.2416 7.3205C57.3916 7.3205 57.5251 7.3025 57.6421 7.2665C57.7591 7.2305 57.8581 7.1795 57.9391 7.1135C58.0201 7.0475 58.0816 6.971 58.1236 6.884C58.1656 6.794 58.1866 6.6965 58.1866 6.5915C58.1866 6.3875 58.1026 6.227 57.9346 6.11C57.7696 5.99 57.5086 5.93 57.1516 5.93H56.6341V5.291H57.1516C57.4636 5.291 57.7051 5.234 57.8761 5.12C58.0471 5.006 58.1326 4.8575 58.1326 4.6745C58.1326 4.5095 58.0576 4.37 57.9076 4.256C57.7606 4.142 57.5386 4.085 57.2416 4.085C57.0736 4.085 56.9296 4.103 56.8096 4.139C56.6926 4.172 56.5936 4.2095 56.5126 4.2515C56.4316 4.2905 56.3626 4.3265 56.3056 4.3595C56.2516 4.3925 56.2036 4.409 56.1616 4.409C56.1166 4.409 56.0776 4.4 56.0446 4.382C56.0146 4.364 55.9816 4.3265 55.9456 4.2695L55.7251 3.896ZM63.8835 3.41V8H62.916V5.1245C62.916 5.0615 62.919 4.9925 62.925 4.9175C62.931 4.8425 62.94 4.766 62.952 4.688C62.922 4.754 62.892 4.8155 62.862 4.8725C62.835 4.9265 62.805 4.976 62.772 5.021L60.7785 7.7615C60.7425 7.8185 60.6945 7.874 60.6345 7.928C60.5745 7.979 60.507 8.0045 60.432 8.0045H59.847V3.41H60.8145V6.2855C60.8145 6.3485 60.81 6.419 60.801 6.497C60.795 6.575 60.786 6.653 60.774 6.731C60.834 6.593 60.8955 6.479 60.9585 6.389L62.952 3.653C62.988 3.593 63.036 3.5375 63.096 3.4865C63.156 3.4355 63.2235 3.41 63.2985 3.41H63.8835ZM68.7379 4.139H67.0459V8H66.0784V4.139H64.3819V3.41H68.7379V4.139ZM72.0991 5.1875C72.0991 5.0255 72.0751 4.8755 72.0271 4.7375C71.9821 4.5965 71.9146 4.475 71.8246 4.373C71.7346 4.268 71.6221 4.187 71.4871 4.13C71.3551 4.07 71.2021 4.04 71.0281 4.04C70.6771 4.04 70.4011 4.1405 70.2001 4.3415C69.9991 4.5425 69.8716 4.8245 69.8176 5.1875H72.0991ZM69.7906 5.7815C69.8026 6.0425 69.8431 6.269 69.9121 6.461C69.9811 6.65 70.0726 6.8075 70.1866 6.9335C70.3036 7.0595 70.4416 7.154 70.6006 7.217C70.7626 7.277 70.9426 7.307 71.1406 7.307C71.3296 7.307 71.4931 7.286 71.6311 7.244C71.7691 7.199 71.8891 7.151 71.9911 7.1C72.0931 7.046 72.1801 6.998 72.2521 6.956C72.3241 6.911 72.3901 6.8885 72.4501 6.8885C72.5281 6.8885 72.5881 6.9185 72.6301 6.9785L72.9046 7.334C72.7906 7.469 72.6616 7.583 72.5176 7.676C72.3736 7.769 72.2206 7.8455 72.0586 7.9055C71.8966 7.9625 71.7301 8.003 71.5591 8.027C71.3881 8.054 71.2216 8.0675 71.0596 8.0675C70.7416 8.0675 70.4461 8.015 70.1731 7.91C69.9031 7.802 69.6676 7.6445 69.4666 7.4375C69.2686 7.2305 69.1126 6.974 68.9986 6.668C68.8876 6.362 68.8321 6.0095 68.8321 5.6105C68.8321 5.2925 68.8816 4.9955 68.9806 4.7195C69.0826 4.4435 69.2266 4.2035 69.4126 3.9995C69.6016 3.7955 69.8296 3.635 70.0966 3.518C70.3666 3.398 70.6711 3.338 71.0101 3.338C71.2921 3.338 71.5531 3.3845 71.7931 3.4775C72.0331 3.5675 72.2401 3.701 72.4141 3.878C72.5881 4.055 72.7231 4.2725 72.8191 4.5305C72.9181 4.7855 72.9676 5.0765 72.9676 5.4035C72.9676 5.5535 72.9511 5.654 72.9181 5.705C72.8851 5.756 72.8251 5.7815 72.7381 5.7815H69.7906ZM77.5336 7.3295C77.7976 7.3295 78.0061 7.2665 78.1591 7.1405C78.3151 7.0115 78.3931 6.839 78.3931 6.623C78.3931 6.53 78.3796 6.443 78.3526 6.362C78.3256 6.281 78.2791 6.212 78.2131 6.155C78.1471 6.095 78.0586 6.0485 77.9476 6.0155C77.8396 5.9825 77.7031 5.966 77.5381 5.966H76.6336V7.3295H77.5336ZM76.6336 4.049V5.3585H77.4301C77.5501 5.3585 77.6596 5.342 77.7586 5.309C77.8606 5.273 77.9476 5.225 78.0196 5.165C78.0946 5.102 78.1516 5.0285 78.1906 4.9445C78.2326 4.8575 78.2536 4.7615 78.2536 4.6565C78.2536 4.5815 78.2401 4.508 78.2131 4.436C78.1861 4.361 78.1396 4.295 78.0736 4.238C78.0106 4.181 77.9266 4.136 77.8216 4.103C77.7166 4.067 77.5861 4.049 77.4301 4.049H76.6336ZM77.4616 3.41C77.7466 3.41 77.9926 3.4385 78.1996 3.4955C78.4066 3.5495 78.5761 3.626 78.7081 3.725C78.8431 3.824 78.9421 3.941 79.0051 4.076C79.0681 4.211 79.0996 4.3565 79.0996 4.5125C79.0996 4.6115 79.0861 4.715 79.0591 4.823C79.0321 4.931 78.9856 5.0345 78.9196 5.1335C78.8536 5.2295 78.7636 5.318 78.6496 5.399C78.5386 5.48 78.3961 5.543 78.2221 5.588C78.5491 5.648 78.8071 5.768 78.9961 5.948C79.1881 6.125 79.2841 6.362 79.2841 6.659C79.2841 6.887 79.2376 7.085 79.1446 7.253C79.0516 7.421 78.9241 7.5605 78.7621 7.6715C78.6031 7.7825 78.4171 7.865 78.2041 7.919C77.9941 7.973 77.7721 8 77.5381 8H75.7111V3.41H77.4616Z" fill="#838484"/>
<path fill-rule="evenodd" clip-rule="evenodd" d="M18.8944 1.77277H7.39778C1.9816 1.77277 0 3.75436 0 9.17055V20.6671C0 26.0833 1.9816 28.0649 7.39778 28.0649H18.8916C24.3078 28.0649 26.2922 26.0833 26.2922 20.6671V9.17055C26.2922 3.75436 24.3106 1.77277 18.8944 1.77277Z" fill="#838484"/>
<path d="M5.20591 14.9216H5.90335V18.3589H5.20591V16.9641H3.63115V18.3589H2.93372V14.9216H3.63115V16.3081H5.20591V14.9216ZM9.1359 16.8893C9.1359 17.4484 8.85914 17.7473 8.35544 17.7473C7.84897 17.7473 7.56944 17.4401 7.56944 16.8672V14.9243H6.872V16.8893C6.872 17.8552 7.40892 18.4115 8.34713 18.4115C9.29365 18.4115 9.8361 17.8469 9.8361 16.8617V14.9216H9.13867V16.8893H9.1359ZM17.1951 17.2851L16.4147 14.9216H15.8446L15.0641 17.2851L14.3058 14.9216H13.5641L14.7624 18.3562H15.3408L16.1213 16.1006L16.9018 18.3562H17.483L18.6786 14.9216H17.9562L17.1951 17.2851ZM19.9295 16.8783H21.1971V16.2528H19.9295V15.5498H21.77V14.9243H19.2404V18.3562H21.8364V17.7307H19.9295V16.8783ZM22.6694 18.3534H23.3586V14.9216H22.6694V18.3534ZM11.2116 17.6421L10.8989 18.3589H10.1876L11.7015 14.9243H12.3159L13.8242 18.3589H13.0936L12.7836 17.6421H11.2116ZM11.4717 17.0222H12.5262L11.9976 15.7934L11.4717 17.0222Z" fill="white"/>
<path d="M13.1462 10.5433C10.7328 10.5433 8.7706 8.58107 8.7706 6.16772H9.38777C9.38777 8.24065 11.0732 9.92612 13.1462 9.92612C15.2191 9.92612 16.9046 8.24065 16.9046 6.16772H17.5217C17.5217 8.58107 15.5595 10.5433 13.1462 10.5433Z" fill="white"/>
</svg>
