<?xml version="1.0" encoding="UTF-8"?><svg xmlns="http://www.w3.org/2000/svg" width="131" height="29" viewBox="0 0 131 29"><defs><linearGradient id="a" x1="91.437%" x2="-38.203%" y1="4.961%" y2="71.899%"><stop stop-color="#7A7A7A" offset="0%"/><stop stop-color="#7B7B7B" offset="1%"/><stop stop-color="#8C8C8C" offset="26%"/><stop stop-color="#989898" offset="51%"/><stop stop-color="#A0A0A0" offset="76%"/><stop stop-color="#A2A2A2" offset="100%"/></linearGradient><linearGradient id="b" x1="107.958%" x2="-130.777%" y1="50%" y2="50%"><stop stop-color="#D1D1D1" offset="0%"/><stop stop-color="#BCBCBC" offset="41%"/><stop stop-color="#AEAEAE" offset="78%"/><stop stop-color="#A9A9A9" offset="100%"/></linearGradient><linearGradient id="c" x1="86.255%" x2="-50.146%" y1="17.813%" y2="194.586%"><stop stop-color="#767676" offset="0%"/><stop stop-color="#4F4F4F" offset="100%"/></linearGradient><linearGradient id="d" x1="-19.078%" x2="41.949%" y1="-53.902%" y2="24.974%"><stop stop-color="#7A7A7A" offset="0%"/><stop stop-color="#7C7C7C" offset="7%"/><stop stop-color="#8D8D8D" offset="48%"/><stop stop-color="#979797" offset="80%"/><stop stop-color="#9B9B9B" offset="100%"/></linearGradient></defs><g fill="none" fill-rule="evenodd"><path fill="url(#a)" d="M.63.69c-.34.404-.512.923-.48 1.45V24.9c-.032.527.14 1.046.48 1.45l.08.07 12.75-12.75v-.3L.71.62.63.69z"/><path fill="url(#b)" d="M17.7 17.92l-4.25-4.25v-.3l4.25-4.25h.1l5 2.86c1.44.82 1.44 2.15 0 3l-5 2.86-.1.08z"/><path fill="url(#c)" d="M17.8 17.86l-4.35-4.35L.63 26.34c.605.535 1.506.56 2.14.06l15-8.54"/><path fill="url(#d)" d="M17.8 9.17L2.8.63C2.166.13 1.265.155.66.69l12.8 12.83 4.34-4.35z"/><path fill="#000" d="M17.71 17.77L2.77 26.25c-.61.46-1.45.46-2.06 0l-.08.08.08.07c.61.46 1.45.46 2.06 0l15-8.54-.06-.09z" opacity=".2"/><path fill="#000" d="M.63 26.19c-.34-.404-.512-.923-.48-1.45v.16c-.032.527.14 1.046.48 1.45l.08-.08-.08-.08zm22.21-11.34l-5.13 2.92.1.1 5-2.86c.604-.263 1.018-.834 1.08-1.49-.125.582-.513 1.073-1.05 1.33z" opacity=".12"/><path fill="#FFF" d="M2.77.78l20.07 11.4c.55.25.952.748 1.08 1.34-.05-.668-.465-1.254-1.08-1.52L2.77.63C1.33-.19.16.49.16 2.14v.15C.15.64 1.33 0 2.77.78z" opacity=".25"/><path fill="#7A7A7A" d="M32.68 1.11c.25-.212.54-.375.85-.48.35-.117.72-.175 1.09-.17.304-.003.607.037.9.12.245.067.476.18.68.33.18.135.327.31.43.51.1.202.153.424.15.65.002.273-.067.542-.2.78-.14.244-.35.44-.6.57.14.065.27.145.39.24.114.09.215.194.3.31.084.11.152.23.2.36.048.135.07.277.07.42 0 .268-.055.533-.16.78-.103.24-.256.455-.45.63-.21.185-.455.328-.72.42-.32.112-.66.166-1 .16-.417 0-.83-.074-1.22-.22-.184-.068-.36-.15-.53-.25-.158-.093-.306-.204-.44-.33l.34-.55c.03-.04.068-.073.11-.1.05-.014.1-.014.15 0 .087.006.17.037.24.09l.32.19c.14.077.288.14.44.19.2.064.41.094.62.09.316.02.63-.07.89-.25.22-.19.335-.472.31-.76 0-.13-.03-.256-.09-.37-.057-.11-.14-.207-.24-.28-.105-.083-.223-.147-.35-.19-.163-.043-.33-.063-.5-.06h-.86V3h.79c.292.017.582-.056.83-.21.2-.138.312-.368.3-.61.005-.22-.1-.43-.28-.56-.244-.156-.53-.23-.82-.21-.18-.002-.358.02-.53.07-.133.04-.264.09-.39.15l-.28.15c-.06.04-.128.065-.2.07-.046.015-.094.015-.14 0-.044-.058-.072-.127-.08-.2l-.32-.54zm4.97 1.81c.49-.455 1.14-.703 1.81-.69.233-.002.464.042.68.13.193.078.367.198.51.35.142.152.25.333.32.53.076.22.113.45.11.68v2.75h-.48c-.075.02-.155.02-.23 0-.064-.042-.11-.106-.13-.18l-.09-.31-.32.26c-.104.074-.214.137-.33.19-.115.053-.236.093-.36.12-.143.015-.287.015-.43 0-.173 0-.345-.027-.51-.08-.147-.045-.284-.12-.4-.22-.114-.102-.203-.228-.26-.37-.064-.162-.095-.336-.09-.51.002-.235.087-.46.24-.64.09-.11.193-.21.31-.29.153-.097.318-.175.49-.23.222-.072.45-.125.68-.16.292-.042.585-.066.88-.07v-.26c.014-.232-.053-.462-.19-.65-.14-.146-.338-.223-.54-.21-.142-.004-.284.017-.42.06-.104.033-.204.077-.3.13l-.23.13c-.07.04-.15.06-.23.06-.05-.005-.098-.022-.14-.05-.048-.036-.088-.08-.12-.13l-.23-.34zm2.41 1.89c-.255.01-.51.036-.76.08-.172.03-.34.08-.5.15-.107.045-.2.117-.27.21-.13.208-.097.48.08.65.118.07.253.105.39.1.193.004.385-.037.56-.12.165-.09.314-.21.44-.35v-.71h.06v-.01zM45 3.09h-1.9v3.58h-1V2.32h3v.78H45m1.63-.19c.173-.198.38-.363.61-.49.246-.13.52-.196.8-.19.225-.002.448.05.65.15.2.102.375.25.51.43.153.21.265.448.33.7.088.326.128.663.12 1 .004.308-.04.615-.13.91-.08.262-.21.506-.38.72-.16.202-.36.366-.59.48-.243.117-.51.176-.78.17-.212.006-.423-.032-.62-.11-.17-.074-.327-.18-.46-.31V8.1h-1V2.32h.64c.124-.01.237.07.27.19l.03.4zm.06 2.63c.102.135.236.24.39.31.146.06.302.092.46.09.158.007.316-.024.46-.09.13-.06.245-.153.33-.27.098-.14.17-.295.21-.46.05-.216.075-.438.07-.66.004-.218-.016-.436-.06-.65-.033-.153-.094-.3-.18-.43-.094-.118-.224-.202-.37-.24-.116-.054-.242-.08-.37-.08-.196-.006-.39.042-.56.14-.165.104-.31.236-.43.39v2l.05-.05zm7.6-3.22l-2.38 5.56c-.024.066-.066.125-.12.17-.068.045-.15.066-.23.06h-.77l.82-1.75-1.76-4h.92c.068-.003.136.018.19.06.044.038.078.086.1.14L52 4.77c.03.075.058.152.08.23l.06.23.06-.23.08-.23.88-2.26c.044-.12.162-.198.29-.19h.84zm.23.47c.177-.168.384-.3.61-.39.278-.106.573-.157.87-.15.244-.002.486.03.72.1.19.054.37.142.53.26.136.098.248.224.33.37.073.135.11.286.11.44.01.086.01.174 0 .26-.026.092-.067.18-.12.26-.06.09-.134.173-.22.24-.103.08-.217.145-.34.19.225.08.425.218.58.4.148.184.226.414.22.65.003.2-.05.397-.15.57-.1.166-.232.31-.39.42-.167.117-.353.205-.55.26-.208.06-.424.09-.64.09-.133.01-.267.01-.4 0-.308-.05-.602-.165-.86-.34-.16-.116-.298-.258-.41-.42l.3-.38c.04-.066.113-.104.19-.1.068 0 .135.02.19.06l.21.14c.088.056.182.103.28.14.13.044.264.064.4.06.215.016.43-.048.6-.18.13-.112.205-.277.2-.45.004-.164-.075-.318-.21-.41-.207-.116-.444-.168-.68-.15h-.5v-.66h.49c.22.014.438-.034.63-.14.136-.078.22-.223.22-.38 0-.144-.07-.28-.19-.36-.158-.115-.345-.18-.54-.19-.126-.018-.254-.018-.38 0l-.27.1-.19.1c-.046.012-.094.012-.14 0h-.12c-.046-.03-.084-.072-.11-.12l-.27-.29zm8-.47v4.36h-1v-3c-.052.12-.116.233-.19.34l-.08.12-.2.28-.27.38-.31.44-.84 1.18c-.046.063-.1.12-.16.17-.06.053-.14.082-.22.08h-.65V2.32h1v3c.058-.112.125-.22.2-.32l.08-.12.2-.28.27-.38.31-.44.84-1.18c.044-.068.098-.13.16-.18.06-.053.14-.08.22-.08h.64v-.02zm4.78.77h-1.56v3.58h-1V3.09h-1.6v-.77h4.16v.78m1.3 1.53c.01.198.05.394.12.58.056.15.14.285.25.4.1.105.224.187.36.24.15.055.31.082.47.08.15.003.297-.017.44-.06.11-.034.217-.077.32-.13l.24-.13c.06-.037.13-.058.2-.06.08-.006.157.033.2.1l.3.35c-.112.132-.244.247-.39.34-.14.09-.292.164-.45.22-.156.056-.316.096-.48.12-.156.01-.314.01-.47 0-.29.003-.578-.047-.85-.15-.257-.1-.49-.252-.68-.45-.2-.21-.352-.458-.45-.73-.116-.32-.174-.66-.17-1-.003-.286.044-.57.14-.84.18-.515.568-.93 1.07-1.14.278-.117.578-.175.88-.17.26-.003.517.04.76.13.225.082.43.212.6.38.17.178.304.39.39.62.098.27.146.554.14.84.01.11-.008.22-.05.32-.047.06-.124.092-.2.08H68.6v.06zm2-.63c0-.13-.02-.257-.06-.38-.035-.117-.093-.226-.17-.32-.08-.09-.18-.163-.29-.21-.378-.166-.818-.1-1.13.17-.188.204-.304.464-.33.74h2-.02zm5.52-1.68c.24-.005.478.022.71.08.18.043.348.117.5.22.123.084.222.197.29.33.06.132.09.275.09.42.01.096.01.194 0 .29-.026.103-.07.202-.13.29-.068.098-.152.182-.25.25-.12.085-.256.146-.4.18.138.028.272.072.4.13.115.052.22.123.31.21.085.082.153.18.2.29.048.12.072.25.07.38.004.2-.044.395-.14.57-.09.16-.217.297-.37.4-.165.108-.348.186-.54.23-.21.053-.424.08-.64.08H74.4V2.32h1.72zM75.4 3v1.14h.69c.093.015.187.015.28 0 .082-.03.157-.08.22-.14.06-.056.108-.124.14-.2.034-.08.05-.164.05-.25.01-.063.01-.127 0-.19-.022-.065-.06-.123-.11-.17-.065-.085-.15-.15-.25-.19-.11-.017-.22-.017-.33 0h-.69zm.78 3c.187.01.37-.048.52-.16.13-.11.2-.272.19-.44.01-.073.01-.147 0-.22-.03-.072-.077-.134-.14-.18-.063-.056-.138-.097-.22-.12-.116-.017-.234-.017-.35 0h-.78V6h.78zM43.85 18.11v5.56c-.673.502-1.427.885-2.23 1.13-.82.243-1.674.364-2.53.36-1.023.01-2.04-.167-3-.52-.867-.32-1.66-.814-2.33-1.45-.66-.613-1.18-1.36-1.53-2.19-.354-.898-.53-1.855-.52-2.82-.012-.97.158-1.933.5-2.84.637-1.7 1.98-3.038 3.68-3.67.96-.357 1.977-.53 3-.51.523-.004 1.045.04 1.56.13.46.084.912.207 1.35.37.4.148.782.34 1.14.57.334.215.65.46.94.73l-.73 1.16c-.096.17-.26.295-.45.34-.21.036-.427-.014-.6-.14l-.63-.36c-.223-.125-.457-.23-.7-.31-.28-.096-.568-.17-.86-.22-.367-.062-.738-.092-1.11-.09-.63-.01-1.255.105-1.84.34-.536.224-1.014.566-1.4 1-.397.444-.7.965-.89 1.53-.216.644-.32 1.32-.31 2-.01.714.105 1.425.34 2.1.218.588.56 1.123 1 1.57.413.44.92.78 1.48 1 .616.233 1.27.348 1.93.34.43-.02.857-.094 1.27-.22.403-.11.795-.257 1.17-.44V20h-1.73c-.14.007-.277-.044-.38-.14-.092-.09-.143-.212-.14-.34v-1.41h4.56-.01zm6.3-3.01c.683-.013 1.362.106 2 .35.572.222 1.09.563 1.52 1 .443.45.784.987 1 1.58.456 1.353.456 2.817 0 4.17-.217.595-.558 1.137-1 1.59-.43.44-.947.78-1.52 1-.638.244-1.317.363-2 .35-.683.01-1.362-.107-2-.35-.573-.22-1.09-.56-1.52-1-.44-.454-.78-.996-1-1.59-.462-1.352-.462-2.818 0-4.17.217-.592.558-1.13 1-1.58.43-.438.948-.78 1.52-1 .64-.242 1.317-.36 2-.35zm0 8.24c.7.05 1.38-.258 1.8-.82.433-.72.636-1.553.58-2.39.055-.84-.148-1.677-.58-2.4-.42-.566-1.098-.88-1.8-.83-.71-.052-1.4.26-1.83.83-.44.72-.645 1.558-.59 2.4-.056.84.15 1.674.59 2.39.433.564 1.12.873 1.83.82zm10.92-8.24c.683-.013 1.362.106 2 .35.572.222 1.09.563 1.52 1 .443.45.784.987 1 1.58.456 1.353.456 2.817 0 4.17-.217.595-.558 1.137-1 1.59-.43.44-.947.78-1.52 1-.638.244-1.317.363-2 .35-.683.01-1.362-.107-2-.35-.573-.22-1.09-.56-1.52-1-.44-.454-.78-.996-1-1.59-.462-1.352-.462-2.818 0-4.17.217-.592.558-1.13 1-1.58.43-.438.948-.78 1.52-1 .64-.242 1.317-.36 2-.35zm0 8.24c.7.05 1.38-.258 1.8-.82.433-.72.636-1.553.58-2.39.055-.84-.148-1.677-.58-2.4-.42-.566-1.098-.88-1.8-.83-.71-.052-1.4.26-1.83.83-.44.72-.645 1.558-.59 2.4-.056.84.15 1.674.59 2.39.433.564 1.12.873 1.83.82zm15.07-7.75v.87c0 .278-.222.505-.5.51l-.87.16c.135.35.203.724.2 1.1.017.895-.387 1.746-1.09 2.3-.362.282-.772.495-1.21.63-.49.15-.998.225-1.51.22-.183.01-.367.01-.55 0l-.52-.08c-.253.11-.43.346-.46.62-.007.185.1.356.27.43.227.107.47.174.72.2.332.04.666.063 1 .07.38 0 .77 0 1.17.06.393.032.784.09 1.17.17.35.07.688.195 1 .37.296.168.543.41.72.7.2.325.31.698.32 1.08-.003.437-.113.866-.32 1.25-.227.42-.54.79-.92 1.08-.446.337-.946.594-1.48.76-.647.202-1.322.3-2 .29-.646.012-1.29-.06-1.92-.21-.478-.1-.937-.275-1.36-.52-.33-.205-.61-.486-.81-.82-.18-.303-.273-.648-.27-1-.015-.422.13-.833.41-1.15.316-.31.7-.542 1.12-.68-.248-.12-.462-.304-.62-.53-.163-.26-.243-.563-.23-.87 0-.153.03-.305.08-.45.06-.163.14-.318.24-.46.11-.16.242-.304.39-.43.17-.146.36-.27.56-.37-.472-.247-.87-.612-1.16-1.06-.288-.468-.434-1.01-.42-1.56-.014-.897.393-1.748 1.1-2.3.367-.286.784-.5 1.23-.63.885-.256 1.82-.287 2.72-.09.35.08.685.21 1 .38h2.8v-.04zm-2.34 9.85c.003-.16-.054-.318-.16-.44-.13-.13-.293-.227-.47-.28-.224-.073-.456-.123-.69-.15l-.84-.07h-.91c-.313 0-.62-.027-.92-.08-.24.13-.453.302-.63.51-.162.19-.247.43-.24.68.002.168.047.333.13.48.1.16.242.292.41.38.228.122.475.207.73.25.735.127 1.485.127 2.22 0 .273-.053.536-.148.78-.28.187-.103.343-.255.45-.44.104-.168.156-.363.15-.56h-.01zm-2.65-5.55c.258.005.516-.036.76-.12.202-.07.386-.182.54-.33.143-.14.252-.312.32-.5.075-.208.113-.428.11-.65.02-.423-.135-.836-.43-1.14-.772-.562-1.818-.562-2.59 0-.295.304-.45.717-.43 1.14-.002.218.035.435.11.64.068.19.177.365.32.51.154.148.338.26.54.33.244.084.502.125.76.12h-.01zM80 10.88V25h-2.35V10.88m6.5 9.54c.027.444.118.882.27 1.3.12.334.308.64.55.9.226.236.503.417.81.53.32.116.66.177 1 .18.338.01.676-.034 1-.13.248-.077.488-.174.72-.29l.54-.29c.136-.082.29-.127.45-.13.176-.01.343.073.44.22l.67.86c-.25.295-.544.55-.87.76-.314.2-.65.365-1 .49-.347.122-.706.21-1.07.26-.35.05-.705.078-1.06.08-.646.005-1.287-.11-1.89-.34-.573-.22-1.092-.56-1.52-1-.442-.47-.783-1.024-1-1.63-.26-.725-.385-1.49-.37-2.26-.012-.657.096-1.312.32-1.93.204-.567.52-1.087.93-1.53.416-.43.916-.77 1.47-1 .632-.267 1.314-.397 2-.38.58-.007 1.156.09 1.7.29.504.187.96.48 1.34.86.386.397.686.87.88 1.39.222.6.33 1.24.32 1.88.022.245-.016.492-.11.72-.1.14-.27.212-.44.19h-6.08zM88.63 19c0-.292-.043-.582-.13-.86-.077-.26-.207-.502-.38-.71-.185-.19-.41-.338-.66-.43-.29-.124-.604-.186-.92-.18-.59-.033-1.168.177-1.6.58-.41.44-.67 1.002-.74 1.6h4.43zm12.16-7.74c.805-.016 1.608.092 2.38.32.61.182 1.175.49 1.66.9.44.376.784.853 1 1.39.218.564.327 1.165.32 1.77.008.626-.104 1.247-.33 1.83-.218.548-.56 1.037-1 1.43-.486.422-1.055.74-1.67.93-.757.234-1.547.345-2.34.33H98.9V25h-2.56V11.26h4.47-.02zm0 6.91c.41.008.818-.05 1.21-.17.323-.1.62-.272.87-.5.235-.22.414-.495.52-.8.113-.32.17-.66.17-1 .005-.34-.052-.68-.17-1-.11-.29-.284-.55-.51-.76-.248-.22-.542-.384-.86-.48-.4-.12-.814-.176-1.23-.17h-1.91v4.93h1.91v-.05zm9.27-7.29V25h-2.35V10.88m4.47 5.73c1.087-1.006 2.52-1.557 4-1.54.523-.008 1.043.087 1.53.28.432.175.82.44 1.14.78.317.342.56.748.71 1.19.165.49.246 1.003.24 1.52V25h-1.06c-.176.01-.35-.026-.51-.1-.143-.093-.246-.235-.29-.4l-.21-.7c-.23.206-.47.4-.72.58-.23.164-.473.304-.73.42-.26.116-.53.203-.81.26-.33.066-.664.096-1 .09-.387.003-.77-.055-1.14-.17-.332-.102-.638-.272-.9-.5-.258-.228-.46-.512-.59-.83-.147-.365-.218-.756-.21-1.15 0-.252.04-.502.12-.74.088-.256.224-.494.4-.7.212-.244.458-.456.73-.63.343-.217.713-.388 1.1-.51.496-.162 1.004-.282 1.52-.36.662-.1 1.33-.158 2-.17v-.55c.042-.518-.108-1.034-.42-1.45-.314-.328-.757-.5-1.21-.47-.322-.01-.643.034-.95.13-.23.08-.45.18-.66.3l-.52.3c-.158.09-.338.135-.52.13-.15.005-.3-.04-.42-.13-.112-.08-.207-.183-.28-.3l-.34-.74zm5.38 4.23c-.573.023-1.145.083-1.71.18-.382.063-.755.174-1.11.33-.237.098-.444.257-.6.46-.297.47-.217 1.083.19 1.46.294.2.646.294 1 .27.43.01.86-.078 1.25-.26.376-.204.715-.47 1-.79v-1.65h-.02zm13.07-5.59l-5.31 12.43c-.055.148-.15.28-.27.38-.15.098-.33.143-.51.13h-1.75l1.82-3.91-3.94-9h2.06c.154-.01.307.037.43.13.098.08.177.184.23.3l2.07 5.05c.07.166.13.337.18.51l.14.52.17-.53c.06-.173.123-.347.19-.52l2-5c.05-.126.138-.233.25-.31.114-.08.25-.122.39-.12h1.88l-.03-.06z"/></g></svg>